<svg xmlns="http://www.w3.org/2000/svg" viewBox="0 0 180 40" fill="none">
  <defs>
    <linearGradient id="g" x1="0" y1="0" x2="1" y2="0">
      <stop offset="0%" stop-color="#6366f1"/>
      <stop offset="100%" stop-color="#8b5cf6"/>
    </linearGradient>
  </defs>
  <!-- S -->
  <path d="M8 28 C8 28 6 26 6 23 C6 18 10 16 14 16 C18 16 20 18 20 21 C20 24 18 25 14 26 C10 27 8 28 8 31 C8 34 10 36 14 36 C18 36 20 34 20 32" stroke="url(#g)" stroke-width="3" stroke-linecap="round" fill="none"/>
  <!-- ski flow symbol: flowing path -->
  <path d="M28 12 C34 12 36 20 42 20 C48 20 50 12 56 12" stroke="url(#g)" stroke-width="2.5" stroke-linecap="round" fill="none" opacity="0.6"/>
  <path d="M28 20 C34 20 36 28 42 28 C48 28 50 20 56 20" stroke="url(#g)" stroke-width="2.5" stroke-linecap="round" fill="none" opacity="0.8"/>
  <path d="M28 28 C34 28 36 36 42 36 C48 36 50 28 56 28" stroke="url(#g)" stroke-width="2.5" stroke-linecap="round" fill="none"/>
  <!-- text: kiflow -->
  <text x="62" y="31" font-family="'Inter', 'Segoe UI', sans-serif" font-weight="700" font-size="22" fill="url(#g)">kiflow</text>
</svg>
